<?xml version="1.0" encoding="utf-8"?>
<!-- Generator: Adobe Illustrator 26.2.1, SVG Export Plug-In . SVG Version: 6.00 Build 0)  -->
<svg version="1.1" id="Layer_1" xmlns="http://www.w3.org/2000/svg" xmlns:xlink="http://www.w3.org/1999/xlink" x="0px" y="0px"
	 viewBox="0 0 40 40" style="enable-background:new 0 0 40 40;" xml:space="preserve">
<style type="text/css">
	.st0{fill:#FFFFFF;}
</style>
<path id="Sustracción_6" class="st0" d="M19.6,22.2L19.6,22.2l7.7,7.7c0.5,0.4,1.2,0.4,1.6-0.1c0.4-0.4,0.4-1.1,0-1.5l-7.7-7.7
	l7.7-7.7c0.4-0.5,0.4-1.2-0.1-1.6c-0.4-0.4-1.1-0.4-1.5,0L19.6,19l-7.7-7.7c-0.4-0.5-1.1-0.5-1.6,0c-0.5,0.4-0.5,1.1,0,1.6
	c0,0,0,0,0,0l7.7,7.7l-7.7,7.7c-0.4,0.5-0.4,1.2,0,1.6c0.4,0.4,1.1,0.4,1.5,0L19.6,22.2L19.6,22.2z"/>
</svg>
